<svg
    class="app-modal__close-btn-icon app-modal__close-btn-icon--small"
    xmlns="http://www.w3.org/2000/svg"
    width="20"
    height="20"
    viewbox="0 0 20 20"
    fill="currentColor"
>
    <path
        d="M6.663 10.39l4.545 4.45a.56.56 0 0 0 .395.16.56.56 0 0 0 .395-.16l.335-.328a.54.54 0 0 0 0-.774l-3.816-3.737 3.821-3.741c.105-.103.163-.24.163-.387a.54.54 0 0 0-.163-.387l-.335-.328a.56.56 0 0 0-.395-.16.56.56 0 0 0-.395.16L6.663 9.614a.54.54 0 0 0-.163.388.54.54 0 0 0 .163.388z"
    />
</svg>