<svg
    xmlns="http://www.w3.org/1600/svg"
    width="17"
    height="16"
    fill="none"
    viewbox="0 0 17 16"
>
    <path
        d="M13.834 2.667H3.167A1.34 1.34 0 0 0 1.834 4v8a1.34 1.34 0 0 0 1.333 1.333h10.667A1.34 1.34 0 0 0 15.167 12V4a1.34 1.34 0 0 0-1.333-1.333zM13.567 5.5l-4.36 2.727a1.32 1.32 0 0 1-1.413 0L3.434 5.5c-.067-.038-.125-.088-.172-.149s-.081-.13-.1-.205-.023-.152-.011-.227.039-.148.079-.213.094-.121.157-.165.134-.074.209-.09.153-.016.228 0 .146.046.209.089L8.5 7.333l4.467-2.793c.063-.044.134-.074.209-.089s.152-.015.228 0 .146.046.209.09a.57.57 0 0 1 .236.378c.012.076.008.153-.011.227s-.053.144-.1.205-.105.112-.172.149z"
        fill="#3e4a41"
    ></path>
</svg>