<svg xmlns="http://www.w3.org/2000/svg" width="20" height="20" viewBox="0 0 20 20"
    fill="currentColor">
    <path
        d="M1.667 4.392l1.067-1.058 13.933 13.933-1.058 1.067-2.567-2.567A9.65 9.65 0 0 1 10 16.25c-4.167 0-7.725-2.592-9.167-6.25.575-1.467 1.492-2.758 2.658-3.783L1.667 4.392zM10 7.5a2.5 2.5 0 0 1 2.5 2.5 2.5 2.5 0 0 1-.142.833L9.167 7.642A2.5 2.5 0 0 1 10 7.5zm0-3.75c4.167 0 7.725 2.592 9.167 6.25-.68 1.728-1.836 3.227-3.333 4.325l-1.183-1.192A8.22 8.22 0 0 0 17.35 10c-.674-1.375-1.72-2.534-3.019-3.344s-2.8-1.24-4.331-1.24c-.908 0-1.8.15-2.633.417L6.084 4.558c1.2-.517 2.525-.808 3.917-.808zM2.65 10c.674 1.375 1.72 2.534 3.019 3.344s2.8 1.24 4.331 1.24a7.74 7.74 0 0 0 1.667-.175l-1.9-1.908c-.58-.062-1.121-.321-1.533-.733s-.671-.953-.733-1.533L4.667 7.392C3.842 8.1 3.15 8.983 2.65 10z" />
</svg>