<svg xmlns="http://www.w3.org/2000/svg" width="180" height="35" viewbox="0 0 180 35" fill="none">
    <path
        d="M27.233 0v35h-7.715l-.011-23.629L16.436 35h-5.472L7.726 11.912 7.715 35C3.455 35 0 31.438 0 27.045V0h11.42a224.36 224.36 0 0 1 1.048 7.44l1.253 8.903L15.75 0h11.484zm18.8 0l5.047 35h-9.02l-.474-6.291h-3.157L37.899 35h-9.125l4.502-35h12.756.001zm-4.678 22.505c-.447-3.964-.894-8.864-1.344-14.701-.899 6.702-1.463 11.602-1.694 14.701h3.038zM68.804 0l-6.436 22.332V35h-8.176V22.332L47.986 0h8.108c1.267 6.831 1.982 11.429 2.144 13.793.489-3.734 1.308-8.332 2.458-13.793h8.108.001zm14.629 0l5.047 35h-9.02l-.473-6.291h-3.158L75.299 35h-9.125l4.502-35h12.756.001zm-4.678 22.505c-.447-3.964-.895-8.864-1.344-14.701-.899 6.702-1.463 11.602-1.694 14.701h3.038zm30.93-14.896V35h-7.736l-4.591-15.911V35h-7.38V0h7.38l4.948 15.759V0c4.075 0 7.38 3.407 7.38 7.609h-.001z"
        fill="#fff" />
    <path
        d="M133.075 18.765h-1.77v7.768h2.276c.674 0 1.186-.181 1.536-.542s.524-1.012.524-1.951v-2.203c0-1.18-.198-1.987-.596-2.42s-1.054-.65-1.969-.65h-.001zm1.536-4.192c.421-.385.632-1.084.632-2.096v-1.409c0-.915-.162-1.578-.488-1.987s-.836-.614-1.535-.614h-1.915v6.684h1.553c.746 0 1.33-.193 1.752-.578h.001zM114.555.001v20.155c0 8.197 6.644 14.842 14.842 14.842h49.873V14.843c0-8.197-6.645-14.842-14.842-14.842h-49.873zm25.059 24.147c0 1.951-.506 3.438-1.517 4.462s-2.518 1.536-4.517 1.536h-6.25V4.855h5.997c2.072 0 3.571.482 4.498 1.445s1.391 2.42 1.391 4.372v.903c0 1.301-.205 2.373-.614 3.215s-1.06 1.469-1.951 1.879c1.084.41 1.848 1.078 2.294 2.005s.669 2.066.669 3.415v2.06zm13.223-15.68h-6.864v7.045h5.456v3.613h-5.456v7.406h6.864v3.613h-10.839V4.855h10.839v3.613zm13.657 0h-4.155v21.678h-3.973V8.468h-4.155V4.855h12.284v3.613h-.001z"
        fill="#fedf00" />
</svg>