<svg
    xmlns="http://www.w3.org/1600/svg"
    width="17"
    height="16"
    fill="none"
    viewbox="0 0 17 16"
>
    <path
        d="M10.737 9.404l-.303.302s-.722.717-2.692-1.241-1.248-2.676-1.248-2.676l.191-.191c.471-.468.516-1.22.105-1.769l-.84-1.122c-.509-.68-1.493-.77-2.076-.19l-1.047 1.04c-.289.288-.482.66-.459 1.073.06 1.058.539 3.333 3.208 5.988 2.831 2.815 5.488 2.927 6.574 2.825.344-.032.643-.207.883-.447l.947-.941c.64-.635.46-1.725-.359-2.17l-1.273-.693c-.537-.292-1.191-.206-1.611.211z"
        fill="#58da00"
    ></path>
</svg>